<?xml version="1.0" standalone="no"?>
<!DOCTYPE svg PUBLIC "-//W3C//DTD SVG 20010904//EN"
 "http://www.w3.org/TR/2001/REC-SVG-20010904/DTD/svg10.dtd">
<svg version="1.0" xmlns="http://www.w3.org/2000/svg"
 width="500.000000pt" height="500.000000pt" viewBox="0 0 500.000000 500.000000"
 preserveAspectRatio="xMidYMid meet">
<metadata>
Created by potrace 1.14, written by Peter Selinger 2001-2017
</metadata>
<g transform="translate(0.000000,500.000000) scale(0.100000,-0.100000)"
fill="#000000" stroke="none">
<path d="M2828 4275 c-2 -1 -37 -5 -79 -9 -257 -21 -531 -174 -690 -383 -24
-32 -47 -59 -51 -61 -5 -2 -8 -9 -8 -15 0 -6 -6 -18 -14 -26 -25 -28 -109
-204 -121 -254 -4 -15 -10 -29 -14 -31 -3 -2 -42 5 -86 16 -144 36 -332 12
-445 -56 -19 -12 -52 -30 -73 -41 -21 -11 -50 -30 -65 -43 -15 -13 -38 -34
-52 -46 -81 -68 -170 -213 -204 -331 -24 -80 -29 -90 -57 -93 -42 -5 -141 -43
-193 -75 -60 -37 -137 -114 -168 -168 l-22 -39 -87 0 c-70 0 -88 -3 -93 -16
-11 -28 4 -34 80 -34 60 0 74 -3 74 -15 0 -16 -14 -24 -47 -29 -26 -4 -29 -36
-5 -43 18 -4 20 -13 20 -106 -1 -120 18 -209 64 -303 39 -80 122 -171 199
-217 l56 -33 -38 -33 c-89 -74 -102 -185 -32 -279 48 -65 88 -76 275 -77 92 0
169 -3 172 -5 2 -3 20 -41 40 -84 119 -260 332 -457 584 -541 196 -65 370 -65
587 -1 119 35 284 139 392 245 l72 71 23 -23 c127 -129 324 -195 500 -167 86
13 107 19 176 50 96 44 184 119 255 218 17 23 35 42 41 41 6 0 43 -9 81 -19
69 -18 172 -20 240 -5 125 27 282 159 345 290 37 76 57 178 53 269 -10 272 -9
263 -37 320 -15 31 -46 71 -68 90 l-41 35 21 68 c113 367 -57 761 -393 914
-36 16 -71 29 -79 29 -17 0 -26 21 -26 61 0 53 -40 212 -76 303 -38 94 -90
189 -135 246 -15 20 -29 49 -31 65 -2 21 -9 29 -24 30 -20 1 -54 26 -54 39 0
3 11 6 25 6 28 0 45 27 26 39 -7 5 -35 9 -62 10 -28 1 -62 9 -77 19 -26 17
-23 17 115 20 142 3 172 11 154 41 -6 10 -51 13 -187 13 -177 0 -179 0 -234
29 -97 50 -250 108 -250 94 0 -3 -12 0 -26 6 -15 5 -59 12 -98 15 -39 3 -83 7
-98 9 -15 1 -28 2 -30 0z"/>
<path d="M3692 3924 c-13 -9 -14 -15 -5 -26 9 -10 33 -14 83 -13 74 1 104 15
82 37 -16 16 -138 18 -160 2z"/>
</g>
</svg>
